<svg width="128" height="128" viewBox="0 0 128 128" fill="none" xmlns="http://www.w3.org/2000/svg">
  <rect width="128" height="128" rx="32" fill="#87DC83"/>
  <path d="M31 77.5C31 57.9 46.9 42 66.5 42H77.8C89.5 42 99 51.5 99 63.2C99 74.9 89.5 84.4 77.8 84.4H71.4C68.2 92.8 60.1 98.8 50.6 98.8C39.8 98.8 31 90 31 79.2V77.5Z" fill="#E8F5E9"/>
  <path d="M82.5 49.5C92.2 49.5 100 57.3 100 67C100 76.7 92.2 84.5 82.5 84.5H61.5C51.8 84.5 44 76.7 44 67C44 57.3 51.8 49.5 61.5 49.5H82.5Z" fill="#F7FFF2"/>
  <path d="M91.5 60.5L113 66.8L91.5 73.2V60.5Z" fill="#FFA726"/>
  <circle cx="77.5" cy="61.5" r="4.5" fill="#1D2C13"/>
  <path d="M45 80C52.5 88.2 66.6 90.7 78 84.2" stroke="#3FB683" stroke-width="6" stroke-linecap="round"/>
  <path d="M25 73C30.4 76.8 38 78.2 45.5 75.7" stroke="#1D2C13" stroke-width="7" stroke-linecap="round"/>
</svg>
