<svg width="720" height="720" viewBox="0 0 720 720" fill="none" xmlns="http://www.w3.org/2000/svg">
  <rect width="720" height="720" fill="#87DC83"/>
  <g opacity="0.28">
    <path d="M72 88L116 44L160 88L116 132L72 88Z" fill="#E8F5E9"/>
    <path d="M526 92L580 38L634 92L580 146L526 92Z" fill="#3FB683"/>
    <path d="M330 142L368 104L406 142L368 180L330 142Z" fill="#5DCEA6"/>
    <path d="M92 362L142 312L192 362L142 412L92 362Z" fill="#3FB683"/>
    <path d="M496 348L548 296L600 348L548 400L496 348Z" fill="#E8F5E9"/>
    <path d="M278 480L332 426L386 480L332 534L278 480Z" fill="#4A9D4F"/>
    <path d="M586 594L626 554L666 594L626 634L586 594Z" fill="#5DCEA6"/>
    <path d="M58 620L98 580L138 620L98 660L58 620Z" fill="#E8F5E9"/>
  </g>
  <g opacity="0.18" stroke="#1D2C13" stroke-width="8">
    <path d="M116 44L160 88L116 132L72 88L116 44Z"/>
    <path d="M580 38L634 92L580 146L526 92L580 38Z"/>
    <path d="M548 296L600 348L548 400L496 348L548 296Z"/>
    <path d="M332 426L386 480L332 534L278 480L332 426Z"/>
  </g>
</svg>
